<svg width="102" height="24" viewBox="0 0 102 24" fill="none" xmlns="http://www.w3.org/2000/svg">
<path d="M14.522 2.25304C15.7856 3.89638 16.4081 5.97674 16.265 8.07818C16.3335 10.2611 15.6097 12.3905 14.2382 14.0408C13.6728 14.7598 12.9656 15.3435 12.1647 15.7521C11.3639 16.1607 10.4881 16.3847 9.59687 16.4089C8.71747 16.451 7.83894 16.308 7.01367 15.9883C6.1884 15.6686 5.43329 15.1789 4.79337 14.5482V21.272C4.75395 21.6918 4.84498 22.1137 5.053 22.4753C5.26103 22.837 5.57503 23.1194 5.94864 23.2806C6.36833 23.4543 6.81463 23.5474 7.26605 23.5555H0C0.293527 23.5701 0.586793 23.5215 0.861493 23.4126C1.13619 23.3037 1.38643 23.1369 1.59658 22.9226C1.80674 22.7084 1.9723 22.4512 2.08294 22.1672C2.19357 21.8832 2.2469 21.5784 2.23961 21.272V4.44143C2.23961 2.97193 1.47956 2.48562 0.790449 2.66535L4.84404 0.0223597V8.93451C4.70914 10.9027 5.30003 12.8503 6.49587 14.3791C6.95594 14.953 7.54383 15.4005 8.2081 15.6825C8.87237 15.9645 9.59277 16.0723 10.3062 15.9966C12.5357 15.8168 13.8531 12.825 13.8126 8.5222C13.7721 4.21942 11.7959 1.84073 9.26245 1.56586C8.427 1.4972 7.58996 1.67611 6.8477 2.08198C6.10545 2.48785 5.48818 3.10417 5.06698 3.85998C5.37858 3.14463 5.79576 2.48468 6.30333 1.90417C6.77897 1.36977 7.35413 0.942254 7.99363 0.64777C8.63312 0.353287 9.3235 0.198033 10.0225 0.191511C10.8732 0.156726 11.7204 0.324248 12.4999 0.681404C13.2795 1.03856 13.9709 1.57599 14.522 2.25304Z" fill="#FEFEFE" style="mix-blend-mode:difference"/>
<path d="M33.8485 13.5647C33.4431 14.8228 32.9263 16.4086 31.0211 16.4086C29.5111 16.4086 28.7612 15.4783 28.7612 13.5965V6.97842C27.083 7.44793 25.4613 8.11471 23.9273 8.96594C23.3388 9.22153 22.8255 9.63479 22.4393 10.1639C22.0531 10.693 21.8078 11.3191 21.7282 11.9789C21.6884 12.3594 21.7258 12.7444 21.838 13.1088C21.9501 13.4732 22.1345 13.8089 22.3792 14.0941C22.6239 14.3793 22.9234 14.6076 23.2582 14.7641C23.593 14.9206 23.9556 15.0018 24.3225 15.0025C25.8949 15.0257 27.4192 14.4378 28.5991 13.3533C27.951 14.126 27.2351 14.8339 26.4608 15.4677C25.4496 16.2343 24.2243 16.6319 22.9747 16.5989C22.4581 16.6588 21.9352 16.5971 21.4445 16.4183C20.9538 16.2395 20.5077 15.9482 20.1392 15.5658C19.7707 15.1834 19.4891 14.7196 19.3151 14.2086C19.1411 13.6977 19.0792 13.1525 19.1339 12.6133C19.1881 11.7801 19.4972 10.9871 20.0156 10.3509C20.664 9.73369 21.3944 9.21739 22.1843 8.81794C23.1725 8.39116 24.1884 8.03788 25.2245 7.76074L26.9675 7.27443L28.7105 6.76698V4.74774C28.7105 1.49158 27.231 0.0855125 25.0218 0.518962C23.3497 0.83612 22.0728 1.82988 22.0728 3.46853C22.0728 3.91256 22.4984 4.76888 22.5288 5.22348C22.5376 5.43772 22.5032 5.65149 22.4278 5.851C22.3525 6.0505 22.2378 6.23129 22.0913 6.38169C21.9448 6.53208 21.7697 6.64873 21.5772 6.7241C21.3848 6.79948 21.1793 6.83189 20.9741 6.81926C20.769 6.80662 20.5686 6.74922 20.386 6.65075C20.2034 6.55228 20.0426 6.41495 19.9141 6.24761C19.7855 6.08028 19.6921 5.88668 19.6397 5.67931C19.5874 5.47194 19.5774 5.25543 19.6102 5.04375C19.6492 4.42983 19.8264 3.83416 20.1275 3.30512C20.4286 2.77608 20.8451 2.3286 21.3431 1.99903C22.4617 1.10921 23.7623 0.501343 25.1434 0.222948C26.625 -0.153952 28.1872 0.0413225 29.5415 0.772689C30.7981 1.49158 31.3859 2.88708 31.3555 5.00147V13.3956C31.3555 14.2836 31.5784 14.8017 32.0446 14.9074C32.2922 14.9514 32.5469 14.9115 32.7712 14.7935C32.9955 14.6756 33.1777 14.4858 33.2911 14.2519C33.5242 14.1779 33.7167 13.9665 33.8485 13.5647Z" fill="#FEFEFE" style="mix-blend-mode:difference"/>
<path d="M43.4116 14.5481C44.4856 14.2008 45.4652 13.592 46.2693 12.772C45.4226 13.86 44.3923 14.7773 43.2292 15.4785C42.0926 16.2239 40.7579 16.572 39.4188 16.4722C38.8367 16.4673 38.2713 16.2688 37.8047 15.9057C37.3382 15.5426 36.9948 15.0337 36.8245 14.453C36.6567 14.0526 36.5671 13.6213 36.561 13.1843L36.4597 11.81V3.07757C36.5078 2.65366 36.4246 2.2248 36.2222 1.85382C36.0198 1.48284 35.7088 1.18924 35.3348 1.01604C34.9566 0.820053 34.541 0.715274 34.1187 0.709453H39.0134V10.3722C39.0066 11.1871 39.071 12.001 39.206 12.8038C39.4086 13.5226 39.8039 14.5164 40.6551 14.6538C41.5575 14.9558 42.5328 14.9184 43.4116 14.5481ZM46.4518 2.91899C46.4937 2.52051 46.4132 2.11843 46.222 1.77073C46.0308 1.42302 45.7386 1.14765 45.3877 0.984324C45.0142 0.810434 44.6109 0.716945 44.202 0.709453H49.0359V12.772C49.0359 14.009 49.8162 14.009 50.1507 14.009H50.2824L46.472 16.5779V2.92956L46.4518 2.91899Z" fill="#FEFEFE" style="mix-blend-mode:difference"/>
<path d="M57.2286 13.7659C57.1829 14.1914 57.262 14.6214 57.4557 14.9989C57.6493 15.3765 57.9482 15.6838 58.3129 15.8802C58.7095 16.0483 59.1316 16.1414 59.5594 16.1551H52.3947C52.803 16.1422 53.2053 16.049 53.5804 15.8802C53.9622 15.701 54.2792 15.3992 54.4852 15.0189C54.6911 14.6386 54.7753 14.1996 54.7255 13.7659V4.25111C54.7255 2.53845 53.6108 2.50674 53.3473 2.61246L57.2286 0.0223319V13.7659ZM64.0285 0.191483C64.6663 0.189069 65.2855 0.415815 65.782 0.833602C66.2784 1.25139 66.6218 1.83474 66.7545 2.48559C66.897 3.03329 66.9652 3.5991 66.9572 4.16653C66.9572 4.54712 66.9572 4.85371 66.9572 5.05458V13.7659C66.9115 14.1914 66.9906 14.6214 67.1843 14.9989C67.3779 15.3765 67.6768 15.6838 68.0415 15.8802C68.4381 16.0483 68.8602 16.1414 69.288 16.1551H62.1233C62.5316 16.1422 62.9339 16.049 63.309 15.8802C63.6793 15.6885 63.9846 15.3832 64.1839 15.0052C64.3831 14.6273 64.4668 14.1948 64.4237 13.7659V7.17954C64.5081 5.84097 64.3953 4.49683 64.0893 3.19391C63.962 2.87161 63.7604 2.58712 63.5022 2.36579C63.2441 2.14445 62.9375 1.99312 62.6097 1.92528C61.1403 1.55526 59.0324 2.47502 57.2894 3.95509C59.6608 1.25925 61.8902 0.0223319 64.0285 0.191483ZM70.271 1.24868C71.3182 0.52371 72.5635 0.174815 73.8179 0.254915C74.3744 0.283674 74.9164 0.450383 75.3988 0.741224C75.9875 1.15998 76.3979 1.80031 76.5439 2.52788C76.6986 3.05914 76.7771 3.61132 76.777 4.16653C76.777 4.57884 76.777 4.88543 76.777 5.05458V13.7659C76.7313 14.1914 76.8105 14.6214 77.0041 14.9989C77.1977 15.3765 77.4967 15.6838 77.8614 15.8802C78.2579 16.0483 78.68 16.1414 79.1078 16.1551H71.9533C72.3581 16.1409 72.7568 16.0477 73.1288 15.8802C73.505 15.696 73.8155 15.3921 74.0158 15.0122C74.2161 14.6323 74.2958 14.196 74.2435 13.7659V6.97867C74.2787 5.79518 74.1903 4.61121 73.98 3.44764C73.8852 3.10227 73.7006 2.79105 73.4466 2.54846C73.1926 2.30587 72.8792 2.14141 72.541 2.07329C71.0919 1.49183 68.9536 2.39045 67.1194 3.93395C68.0365 2.872 69.0985 1.95654 70.271 1.21696V1.24868Z" fill="#FEFEFE" style="mix-blend-mode:difference"/>
<path d="M89.2404 14.5163C91.9664 14.622 93.8716 13.5648 94.956 11.2601C94.6523 12.7593 93.8478 14.097 92.6859 15.0343C91.4549 16.049 89.9162 16.5703 88.3486 16.5038C87.3711 16.5067 86.4029 16.3051 85.5013 15.9111C84.5997 15.517 83.7829 14.9385 83.0992 14.2097C82.3877 13.4357 81.8299 12.5226 81.4577 11.5229C81.0856 10.5232 80.9064 9.4567 80.9305 8.38458C80.8156 6.94264 81.1014 5.49668 81.7538 4.21983C82.4062 2.94297 83.3976 1.88934 84.6092 1.18509C85.9509 0.304591 87.5281 -0.103067 89.1087 0.0221738C89.9072 0.0529869 90.6908 0.256896 91.4096 0.620921C92.1284 0.984946 92.7667 1.50111 93.2839 2.13656C94.3945 3.53481 94.9461 5.32564 94.8242 7.13709H83.4235C83.3433 9.01474 83.9034 10.8613 85.0044 12.3491C85.5147 13.0126 86.1587 13.5507 86.8908 13.9253C87.6229 14.2999 88.4251 14.5016 89.2404 14.5163ZM85.7543 1.25909C84.3153 2.31629 83.5248 4.24038 83.4235 6.91508C86.6765 6.91508 88.6121 6.91508 89.3012 6.77765C89.82 6.79525 90.3365 6.7 90.8181 6.49797C91.2996 6.29594 91.7356 5.99155 92.0982 5.60416C92.5158 4.89933 92.6692 4.05844 92.5289 3.24287C92.3886 2.4273 91.9646 1.69449 91.3381 1.18509C90.5202 0.578047 89.5384 0.258054 88.5346 0.271357C87.5309 0.28466 86.5572 0.630569 85.7543 1.25909Z" fill="#FEFEFE" style="mix-blend-mode:difference"/>
<path d="M99.8289 13.1106C100.124 13.1168 100.41 13.2136 100.653 13.3888C100.895 13.564 101.083 13.8099 101.192 14.0957C101.301 14.3815 101.327 14.6945 101.266 14.9956C101.206 15.2967 101.062 15.5725 100.852 15.7886C100.642 16.0047 100.376 16.1514 100.086 16.2105C99.7969 16.2695 99.4972 16.2382 99.2247 16.1205C98.9522 16.0028 98.7191 15.804 98.5544 15.5488C98.3897 15.2936 98.3007 14.9934 98.2987 14.6858C98.304 14.2661 98.4676 13.8655 98.754 13.5706C99.0404 13.2758 99.4266 13.1105 99.8289 13.1106Z" fill="#FEFEFE" style="mix-blend-mode:difference"/>
</svg>
